<?xml version="1.0" standalone="no"?>
<!DOCTYPE svg PUBLIC "-//W3C//DTD SVG 20010904//EN"
 "http://www.w3.org/TR/2001/REC-SVG-20010904/DTD/svg10.dtd">
<svg version="1.0" xmlns="http://www.w3.org/2000/svg"
 width="1200.000000pt" height="1200.000000pt" viewBox="0 0 1200.000000 1200.000000"
 preserveAspectRatio="xMidYMid meet">
<metadata>
Created by potrace 1.11, written by Peter Selinger 2001-2013
</metadata>
<g transform="translate(0.000000,1200.000000) scale(0.100000,-0.100000)"
fill="#000000" stroke="none">
<path d="M1748 10985 c-131 -27 -263 -99 -344 -189 -84 -92 -235 -312 -382
-556 -371 -614 -652 -1324 -793 -2005 -7 -33 -14 -64 -15 -70 -2 -11 -34 -180
-39 -205 -1 -8 -6 -37 -9 -63 -4 -27 -9 -56 -11 -65 -1 -10 -6 -39 -9 -67 -4
-27 -9 -63 -11 -80 -3 -16 -7 -52 -10 -80 -5 -50 -11 -110 -20 -195 -27 -253
-27 -953 -1 -1190 3 -19 7 -66 11 -105 7 -78 11 -116 19 -190 4 -27 9 -70 12
-95 2 -25 7 -55 9 -67 3 -12 8 -41 11 -65 3 -24 7 -50 8 -58 47 -326 188 -795
346 -1145 65 -146 211 -430 275 -540 43 -71 83 -139 89 -150 36 -64 278 -420
296 -435 3 -3 28 -34 55 -70 28 -36 57 -74 66 -85 174 -210 254 -299 409 -456
195 -198 336 -327 495 -454 28 -22 52 -43 55 -46 8 -8 198 -151 260 -194 263
-184 472 -309 770 -458 425 -213 816 -354 1310 -472 44 -10 275 -56 307 -60
21 -3 49 -8 63 -11 80 -15 71 -14 195 -29 353 -43 459 -50 835 -50 261 0 450
6 575 19 17 2 60 6 96 10 36 4 76 8 90 11 13 2 49 6 80 10 31 3 65 7 75 9 11
2 41 7 67 10 27 4 57 9 67 11 9 2 35 6 56 10 75 11 99 16 134 25 19 5 51 11
70 14 178 27 827 222 922 276 10 6 23 10 29 10 29 0 499 219 646 301 177 99
358 210 497 305 67 45 126 86 131 91 6 4 46 35 90 67 68 50 228 178 314 251
125 106 458 434 577 570 521 592 921 1275 1150 1965 68 203 149 531 169 685 4
28 8 57 10 65 1 8 6 40 10 70 4 30 9 63 11 74 2 10 6 44 9 75 3 31 8 72 11 91
9 72 16 155 31 365 15 226 8 890 -12 1025 -2 14 -7 63 -10 110 -4 47 -9 92
-10 101 -2 9 -6 40 -10 70 -4 30 -8 63 -10 74 -19 151 -61 381 -100 550 -20
88 -41 176 -45 195 -43 189 -194 642 -285 855 -85 200 -120 277 -199 435 -75
149 -203 382 -279 505 -46 74 -220 333 -265 395 -80 107 -117 145 -196 197
-188 125 -437 146 -643 53 -138 -62 -206 -129 -345 -335 -56 -82 -125 -184
-153 -225 -28 -41 -132 -194 -230 -340 -98 -146 -202 -300 -232 -342 -29 -42
-53 -81 -53 -87 0 -5 -4 -11 -8 -13 -5 -1 -73 -100 -153 -218 -79 -118 -146
-217 -149 -220 -3 -3 -63 -93 -135 -200 -71 -107 -152 -217 -180 -245 -102
-104 -207 -158 -370 -190 -16 -3 -64 -5 -105 -5 -71 0 -113 7 -335 60 -154 36
-315 66 -555 105 -14 2 -45 7 -70 10 -25 3 -61 7 -80 10 -390 49 -873 53
-1290 11 -93 -10 -194 -22 -250 -31 -267 -42 -408 -70 -613 -119 -185 -45
-190 -46 -272 -47 -87 0 -133 7 -215 32 -157 50 -266 141 -392 329 -42 63
-130 194 -195 290 -65 96 -204 301 -307 455 -104 154 -226 334 -271 400 -45
66 -153 226 -240 355 -236 349 -251 371 -302 424 -148 155 -385 226 -605 181z"/>
</g>
</svg>
