<?xml version="1.0" encoding="utf-8"?>
<!-- Generator: Adobe Illustrator 23.0.2, SVG Export Plug-In . SVG Version: 6.00 Build 0)  -->
<svg version="1.1" id="Layer_1" xmlns="http://www.w3.org/2000/svg" xmlns:xlink="http://www.w3.org/1999/xlink" x="0px" y="0px"
	 viewBox="0 0 300 254" style="enable-background:new 0 0 300 254;" xml:space="preserve">
<path d="M150,253.95c86.94,0,139.6-66.7,147.66-118.31c9.76-62.52-13.19-106.39-29.79-128.89c-6.79-9.2-20.95-8.97-27.34,0.49
	l-32.73,48.48c-3.91,5.79-11.21,8.43-18.1,6.64c-9.4-2.44-23.77-5.29-39.69-5.29s-30.3,2.85-39.69,5.29
	c-6.89,1.79-14.19-0.85-18.1-6.64L59.47,7.25c-6.39-9.46-20.55-9.69-27.34-0.49C15.52,29.25-7.43,73.12,2.34,135.64
	C10.4,187.25,63.06,253.95,150,253.95z"/>
</svg>
